# xmcd
#
# Track frame offsets: 
#        150
#        23770
#        42204
#        61509
#        75452
#        112158
#        125978
#        152989
#        185919
#        207912
#        237394
#        260866
#        288330
#
# Disc length: 4071 seconds
#
# Revision: 0
# Processed by: cddbd v1.5.2PL0 Copyright (c) Steve Scherf et al.
# Submitted via: ExactAudioCopy v0.95a3
#
DISCID=c10fe50d
DTITLE=Popa Chubby - Deliveries After Dark
DYEAR=2008
DGENRE=Blues
TTITLE0=Let the Music Set You Free
TTITLE1=Sally Likes To Run
TTITLE2=Deliveries After Dark
TTITLE3=Theme From The Godfather
TTITLE4=Grown Man Crying Blues
TTITLE5=You Can't Stop Love
TTITLE6=I'll Piss On Your Grave
TTITLE7=Man Of the Blues
TTITLE8=Money Isn't Everything (It's the Only Thing)
TTITLE9=2nd Avenue Shuffle
TTITLE10=You Never Loved Me
TTITLE11=Woman In My Bed Dub
TTITLE12=Oh Rock And Roll You Heartless Bitch
EXTD=
EXTT0=
EXTT1=
EXTT2=
EXTT3=
EXTT4=
EXTT5=
EXTT6=
EXTT7=
EXTT8=
EXTT9=
EXTT10=
EXTT11=
EXTT12=
PLAYORDER=
